<!--?xml version="1.0" standalone="no"?-->
              <svg id="sw-js-blob-svg" viewBox="0 0 100 100" xmlns="http://www.w3.org/2000/svg" version="1.1">
                    <defs> 
                        <linearGradient id="sw-gradient" x1="0" x2="1" y1="1" y2="0">
                            <stop id="stop1" stop-color="rgba(83, 6, 253, 1)" offset="0%"></stop>
                            <stop id="stop2" stop-color="rgba(83, 6, 253, 1)" offset="100%"></stop>
                        </linearGradient>
                    </defs>
                <path fill="url(#sw-gradient)" d="M23.2,-26.8C29.2,-22.6,32.6,-14.5,35.1,-5.4C37.7,3.7,39.5,13.8,36.3,22.6C33.2,31.5,25.1,39.1,15.6,42.4C6.1,45.6,-4.8,44.5,-12.4,39.4C-20,34.4,-24.2,25.4,-28.6,17C-32.9,8.5,-37.3,0.6,-37.5,-8C-37.7,-16.7,-33.6,-26,-26.7,-30.1C-19.7,-34.2,-9.9,-33,-0.6,-32.3C8.6,-31.5,17.2,-31.1,23.2,-26.8Z" width="100%" height="100%" transform="translate(50 50)" stroke-width="0" style="transition: all 0.3s ease 0s;"></path>
              </svg>