<svg id="visual" viewBox="0 0 960 540" width="960" height="540" xmlns="http://www.w3.org/2000/svg" xmlns:xlink="http://www.w3.org/1999/xlink" version="1.1"><g stroke-width="1" stroke-linejoin="bevel"><path d="M517 272L549 374L602 284Z" fill="#5306fd" stroke="#5306fd"></path><path d="M517 272L497 384L549 374Z" fill="#3b21ea" stroke="#3b21ea"></path><path d="M549 374L684 338L602 284Z" fill="#002e7f" stroke="#002e7f"></path><path d="M497 384L507 457L549 374Z" fill="#002e7f" stroke="#002e7f"></path><path d="M549 374L593 475L684 338Z" fill="#232bd6" stroke="#232bd6"></path><path d="M455 184L423 245L517 272Z" fill="#0031ac" stroke="#0031ac"></path><path d="M517 272L399 346L497 384Z" fill="#0031ac" stroke="#0031ac"></path><path d="M497 384L418 478L507 457Z" fill="#00224d" stroke="#00224d"></path><path d="M423 245L399 346L517 272Z" fill="#5306fd" stroke="#5306fd"></path><path d="M684 338L703 263L602 284Z" fill="#232bd6" stroke="#232bd6"></path><path d="M567 146L455 184L517 272Z" fill="#3b21ea" stroke="#3b21ea"></path><path d="M507 457L593 475L549 374Z" fill="#003196" stroke="#003196"></path><path d="M567 146L517 272L602 284Z" fill="#232bd6" stroke="#232bd6"></path><path d="M636 156L567 146L602 284Z" fill="#0b2fc2" stroke="#0b2fc2"></path><path d="M703 263L636 156L602 284Z" fill="#002966" stroke="#002966"></path><path d="M593 475L690 469L684 338Z" fill="#5306fd" stroke="#5306fd"></path><path d="M684 338L766 298L703 263Z" fill="#0b2fc2" stroke="#0b2fc2"></path><path d="M399 346L418 478L497 384Z" fill="#232bd6" stroke="#232bd6"></path><path d="M507 457L613 540L593 475Z" fill="#002966" stroke="#002966"></path><path d="M771 348L766 298L684 338Z" fill="#001a34" stroke="#001a34"></path><path d="M703 263L745 176L636 156Z" fill="#002e7f" stroke="#002e7f"></path><path d="M567 146L476 117L455 184Z" fill="#002966" stroke="#002966"></path><path d="M455 184L396 150L423 245Z" fill="#0b2fc2" stroke="#0b2fc2"></path><path d="M573 86L476 117L567 146Z" fill="#232bd6" stroke="#232bd6"></path><path d="M690 469L771 348L684 338Z" fill="#002966" stroke="#002966"></path><path d="M476 117L396 150L455 184Z" fill="#00224d" stroke="#00224d"></path><path d="M423 245L294 291L399 346Z" fill="#00224d" stroke="#00224d"></path><path d="M707 105L573 86L636 156Z" fill="#002e7f" stroke="#002e7f"></path><path d="M636 156L573 86L567 146Z" fill="#00224d" stroke="#00224d"></path><path d="M456 540L613 540L507 457Z" fill="#232bd6" stroke="#232bd6"></path><path d="M593 475L665 540L690 469Z" fill="#001a34" stroke="#001a34"></path><path d="M766 298L745 176L703 263Z" fill="#0b2fc2" stroke="#0b2fc2"></path><path d="M418 478L456 540L507 457Z" fill="#001a34" stroke="#001a34"></path><path d="M613 540L665 540L593 475Z" fill="#001a34" stroke="#001a34"></path><path d="M690 469L785 448L771 348Z" fill="#00224d" stroke="#00224d"></path><path d="M745 176L707 105L636 156Z" fill="#0031ac" stroke="#0031ac"></path><path d="M280 202L294 291L423 245Z" fill="#00224d" stroke="#00224d"></path><path d="M399 346L291 460L418 478Z" fill="#0b2fc2" stroke="#0b2fc2"></path><path d="M418 478L406 540L456 540Z" fill="#003196" stroke="#003196"></path><path d="M764 540L785 448L690 469Z" fill="#00101c" stroke="#00101c"></path><path d="M771 348L838 320L766 298Z" fill="#0031ac" stroke="#0031ac"></path><path d="M291 460L406 540L418 478Z" fill="#003196" stroke="#003196"></path><path d="M294 291L279 346L399 346Z" fill="#232bd6" stroke="#232bd6"></path><path d="M476 117L418 73L396 150Z" fill="#3b21ea" stroke="#3b21ea"></path><path d="M396 150L280 202L423 245Z" fill="#00224d" stroke="#00224d"></path><path d="M504 0L418 73L476 117Z" fill="#0031ac" stroke="#0031ac"></path><path d="M785 448L838 320L771 348Z" fill="#00101c" stroke="#00101c"></path><path d="M766 298L864 255L745 176Z" fill="#002966" stroke="#002966"></path><path d="M745 176L799 118L707 105Z" fill="#3b21ea" stroke="#3b21ea"></path><path d="M274 124L280 202L396 150Z" fill="#002e7f" stroke="#002e7f"></path><path d="M294 291L193 239L279 346Z" fill="#001a34" stroke="#001a34"></path><path d="M279 346L291 460L399 346Z" fill="#002966" stroke="#002966"></path><path d="M665 540L764 540L690 469Z" fill="#001a34" stroke="#001a34"></path><path d="M785 448L902 472L838 320Z" fill="#0031ac" stroke="#0031ac"></path><path d="M850 164L799 118L745 176Z" fill="#001a34" stroke="#001a34"></path><path d="M605 0L504 0L573 86Z" fill="#002966" stroke="#002966"></path><path d="M960 330L864 255L838 320Z" fill="#0b2fc2" stroke="#0b2fc2"></path><path d="M838 320L864 255L766 298Z" fill="#003196" stroke="#003196"></path><path d="M573 86L504 0L476 117Z" fill="#002e7f" stroke="#002e7f"></path><path d="M605 0L573 86L645 0Z" fill="#0b2fc2" stroke="#0b2fc2"></path><path d="M645 0L573 86L707 105Z" fill="#00101c" stroke="#00101c"></path><path d="M778 0L645 0L707 105Z" fill="#003196" stroke="#003196"></path><path d="M864 255L850 164L745 176Z" fill="#0031ac" stroke="#0031ac"></path><path d="M418 73L274 124L396 150Z" fill="#0031ac" stroke="#0031ac"></path><path d="M280 202L193 239L294 291Z" fill="#003196" stroke="#003196"></path><path d="M325 0L274 124L418 73Z" fill="#003196" stroke="#003196"></path><path d="M504 0L419 0L418 73Z" fill="#3b21ea" stroke="#3b21ea"></path><path d="M291 460L277 540L406 540Z" fill="#002966" stroke="#002966"></path><path d="M215 488L277 540L291 460Z" fill="#0b2fc2" stroke="#0b2fc2"></path><path d="M190 387L291 460L279 346Z" fill="#00101c" stroke="#00101c"></path><path d="M201 176L193 239L280 202Z" fill="#232bd6" stroke="#232bd6"></path><path d="M764 540L848 540L785 448Z" fill="#003196" stroke="#003196"></path><path d="M193 239L190 387L279 346Z" fill="#0031ac" stroke="#0031ac"></path><path d="M274 124L201 176L280 202Z" fill="#3b21ea" stroke="#3b21ea"></path><path d="M133 180L201 176L161 69Z" fill="#003196" stroke="#003196"></path><path d="M190 387L215 488L291 460Z" fill="#002966" stroke="#002966"></path><path d="M848 540L902 472L785 448Z" fill="#0031ac" stroke="#0031ac"></path><path d="M960 51L843 66L850 164Z" fill="#002e7f" stroke="#002e7f"></path><path d="M960 211L850 164L864 255Z" fill="#0031ac" stroke="#0031ac"></path><path d="M850 164L843 66L799 118Z" fill="#002966" stroke="#002966"></path><path d="M799 118L778 0L707 105Z" fill="#002966" stroke="#002966"></path><path d="M843 66L778 0L799 118Z" fill="#00224d" stroke="#00224d"></path><path d="M419 0L325 0L418 73Z" fill="#3b21ea" stroke="#3b21ea"></path><path d="M902 472L960 330L838 320Z" fill="#232bd6" stroke="#232bd6"></path><path d="M960 330L960 235L864 255Z" fill="#001a34" stroke="#001a34"></path><path d="M960 235L960 211L864 255Z" fill="#3b21ea" stroke="#3b21ea"></path><path d="M133 540L194 540L215 488Z" fill="#001a34" stroke="#001a34"></path><path d="M215 488L194 540L277 540Z" fill="#002966" stroke="#002966"></path><path d="M960 540L960 460L902 472Z" fill="#0031ac" stroke="#0031ac"></path><path d="M902 472L960 460L960 330Z" fill="#232bd6" stroke="#232bd6"></path><path d="M161 69L201 176L274 124Z" fill="#003196" stroke="#003196"></path><path d="M201 176L133 180L193 239Z" fill="#00224d" stroke="#00224d"></path><path d="M193 239L107 286L190 387Z" fill="#003196" stroke="#003196"></path><path d="M190 387L110 475L215 488Z" fill="#0b2fc2" stroke="#0b2fc2"></path><path d="M960 51L870 0L843 66Z" fill="#00101c" stroke="#00101c"></path><path d="M843 66L870 0L778 0Z" fill="#00224d" stroke="#00224d"></path><path d="M133 180L107 286L193 239Z" fill="#0031ac" stroke="#0031ac"></path><path d="M107 286L105 361L190 387Z" fill="#232bd6" stroke="#232bd6"></path><path d="M848 540L960 540L902 472Z" fill="#001a34" stroke="#001a34"></path><path d="M166 0L161 69L274 124Z" fill="#001a34" stroke="#001a34"></path><path d="M105 361L110 475L190 387Z" fill="#001a34" stroke="#001a34"></path><path d="M110 475L133 540L215 488Z" fill="#002e7f" stroke="#002e7f"></path><path d="M960 211L960 51L850 164Z" fill="#0031ac" stroke="#0031ac"></path><path d="M166 0L113 83L161 69Z" fill="#0031ac" stroke="#0031ac"></path><path d="M161 69L113 83L133 180Z" fill="#00224d" stroke="#00224d"></path><path d="M0 242L0 366L107 286Z" fill="#00101c" stroke="#00101c"></path><path d="M325 0L166 0L274 124Z" fill="#001a34" stroke="#001a34"></path><path d="M960 51L960 0L870 0Z" fill="#001a34" stroke="#001a34"></path><path d="M105 361L0 426L110 475Z" fill="#003196" stroke="#003196"></path><path d="M110 475L0 540L133 540Z" fill="#00101c" stroke="#00101c"></path><path d="M107 286L0 366L105 361Z" fill="#5306fd" stroke="#5306fd"></path><path d="M0 242L107 286L133 180Z" fill="#232bd6" stroke="#232bd6"></path><path d="M0 154L133 180L113 83Z" fill="#00101c" stroke="#00101c"></path><path d="M0 154L0 242L133 180Z" fill="#001a34" stroke="#001a34"></path><path d="M0 366L0 426L105 361Z" fill="#3b21ea" stroke="#3b21ea"></path><path d="M166 0L72 0L113 83Z" fill="#0031ac" stroke="#0031ac"></path><path d="M0 94L0 154L113 83Z" fill="#003196" stroke="#003196"></path><path d="M72 0L0 94L113 83Z" fill="#00224d" stroke="#00224d"></path><path d="M0 426L0 540L110 475Z" fill="#232bd6" stroke="#232bd6"></path><path d="M72 0L0 0L0 94Z" fill="#232bd6" stroke="#232bd6"></path></g></svg>